<svg width="12" height="10" viewBox="0 0 12 10" fill="none" xmlns="http://www.w3.org/2000/svg">
<path d="M5.99999 0.200012C6.56578 0.200012 7.10841 0.424773 7.50848 0.824851C7.90856 1.22493 8.13332 1.76755 8.13332 2.33335C8.13332 2.72268 8.03199 3.08535 7.84532 3.40001H9.19999C9.70666 3.40001 10.1333 3.75735 10.24 4.23201C11.312 8.50401 11.3333 8.61601 11.3333 8.73335C11.3333 9.01624 11.2209 9.28755 11.0209 9.48759C10.8209 9.68763 10.5496 9.80001 10.2667 9.80001H1.73332C1.45043 9.80001 1.17911 9.68763 0.979076 9.48759C0.779037 9.28755 0.666656 9.01624 0.666656 8.73335C0.666656 8.61601 0.68799 8.50401 1.75999 4.23201C1.86666 3.75735 2.29332 3.40001 2.79999 3.40001H4.15466C3.96401 3.07702 3.86448 2.7084 3.86666 2.33335C3.86666 1.76755 4.09142 1.22493 4.4915 0.824851C4.89157 0.424773 5.43419 0.200012 5.99999 0.200012ZM5.99999 1.26668C5.71709 1.26668 5.44578 1.37906 5.24574 1.5791C5.0457 1.77914 4.93332 2.05045 4.93332 2.33335C4.93332 2.61624 5.0457 2.88755 5.24574 3.08759C5.44578 3.28763 5.71709 3.40001 5.99999 3.40001C6.28289 3.40001 6.5542 3.28763 6.75424 3.08759C6.95428 2.88755 7.06666 2.61624 7.06666 2.33335C7.06666 2.05045 6.95428 1.77914 6.75424 1.5791C6.5542 1.37906 6.28289 1.26668 5.99999 1.26668Z" fill="#B7BDC9"/>
</svg>
